<svg xmlns="http://www.w3.org/2000/svg" version="1.1" xmlns:xlink="http://www.w3.org/1999/xlink" xmlns:svgjs="http://svgjs.dev/svgjs" width="1000" height="1000" viewBox="0 0 1000 1000"><rect width="1000" height="1000" fill="#ffffff"></rect><g transform="matrix(0.7,0,0,0.7,149.5760977019317,436.46709807755906)"><svg viewBox="0 0 396 72" data-background-color="#ffffff" preserveAspectRatio="xMidYMid meet" height="181" width="1000" xmlns="http://www.w3.org/2000/svg" xmlns:xlink="http://www.w3.org/1999/xlink"><defs></defs><g id="tight-bounds" transform="matrix(1,0,0,1,0.24019108265900968,0.10393798172412971)"><svg viewBox="0 0 395.52 71.7918960264905" height="71.7918960264905" width="395.52"><g><svg viewBox="0 0 466.1508069347926 84.61228323252246" height="71.7918960264905" width="395.52"><g transform="matrix(1,0,0,1,70.63080693479263,1.4897965933367487)"><svg viewBox="0 0 395.52 81.63269004584896" height="81.63269004584896" width="395.52"><g><svg viewBox="0 0 395.52 81.63269004584896" height="81.63269004584896" width="395.52"><g><svg viewBox="0 0 395.52 52.332460286710564" height="52.332460286710564" width="395.52"><g transform="matrix(1,0,0,1,0,0)"><svg width="395.52" viewBox="0.75 -33.599998474121094 261.1300048828125 34.14999771118164" height="52.332460286710564" data-palette-color="#585f69"><g class="undefined-text-0" data-fill-palette-color="primary" id="text-0"><path d="M31.15-33.4L31.15-25.85 29.65-25.85 27.3-31.6 19.25-31.7 19.25-1.65 23.9-1.2 23.9 0 7.95 0 7.95-1.2 12.6-1.65 12.6-31.7 4.55-31.6 2.2-25.85 0.75-25.85 0.75-33.4 15.95-33.5 31.15-33.4ZM42.8-18.5Q43.65-21.2 45.92-23.1 48.2-25 50.07-25 51.95-25 52.6-24.08 53.25-23.15 53.25-22.55L53.25-22.55Q53.25-20.5 51.75-19.6L51.75-19.6Q50.75-20.4 48.77-20.4 46.8-20.4 44.85-19.18 42.9-17.95 42.9-16.5L42.9-16.5 42.9-1.45 47.4-1.15 47.4 0 33.45 0 33.45-1.15 36.75-1.4 36.75-22.75 32.7-22.95 32.7-24.1 42.9-24.65 42.6-18.5 42.8-18.5ZM72.2-17.45L72.2-17.45Q72.2-23.55 67.95-23.55L67.95-23.55Q63.5-23.55 62.55-15.75L62.55-15.75 72.09-15.75Q72.2-16.75 72.2-17.45ZM67.5 0.55L67.5 0.55Q62.15 0.55 58.82-2.95 55.5-6.45 55.5-12.2 55.5-17.95 58.97-21.45 62.45-24.95 67.8-24.95 73.15-24.95 75.8-22.68 78.45-20.4 78.45-16.35L78.45-16.35Q78.45-15.2 78.25-13.95L78.25-13.95 62.4-13.95 62.4-12.2Q62.4-6.6 63.8-3.73 65.2-0.85 68.02-0.85 70.84-0.85 73.17-2.02 75.5-3.2 76.8-5.35L76.8-5.35Q77.9-5 77.9-4.3L77.9-4.3Q77.9-3.05 75.55-1.4L75.55-1.4Q74.4-0.6 72.27-0.03 70.15 0.55 67.5 0.55ZM91.59-0.7L91.59-0.7Q93.34-0.7 94.49-1.83 95.64-2.95 95.64-5.5L95.64-5.5Q95.64-7.55 93.94-8.6L93.94-8.6Q92.64-9.4 90.62-10.18 88.59-10.95 87.52-11.5 86.44-12.05 85.14-12.95L85.14-12.95Q82.59-14.75 82.59-17.85 82.59-20.95 85.17-22.95 87.74-24.95 92.69-24.95L92.69-24.95Q95.79-24.95 97.94-23.63 100.09-22.3 100.09-20.3 100.09-18.3 98.39-17.4L98.39-17.4Q97.59-17 96.79-17L96.79-17 94.99-17.55Q95.29-19.1 95.29-20.38 95.29-21.65 94.49-22.68 93.69-23.7 92.09-23.7L92.09-23.7Q88.19-23.7 88.19-19L88.19-19Q88.19-16.85 89.84-15.8L89.84-15.8Q91.09-14.95 93.04-14.28 94.99-13.6 96.12-13.1 97.24-12.6 98.54-11.7L98.54-11.7Q101.14-10 101.14-6.68 101.14-3.35 98.39-1.4 95.64 0.55 91.14 0.55L91.14 0.55Q86.14 0.55 83.74-1.1L83.74-1.1Q82.34-2.1 82.34-3.55 82.34-5 83.32-5.9 84.29-6.8 86.04-6.85L86.04-6.85Q86.39-0.7 91.59-0.7ZM127.49-3.05Q123.99 0.55 117.94 0.55 111.89 0.55 108.39-3.05 104.89-6.65 104.89-12.2 104.89-17.75 108.39-21.35 111.89-24.95 117.94-24.95 123.99-24.95 127.49-21.35 130.99-17.75 130.99-12.2 130.99-6.65 127.49-3.05ZM111.84-12.2Q111.84-0.65 117.94-0.65 124.04-0.65 124.04-12.2L124.04-12.2Q124.04-17.85 122.69-20.78 121.34-23.7 117.94-23.7 114.54-23.7 113.19-20.78 111.84-17.85 111.84-12.2L111.84-12.2ZM143.84-18.5Q144.69-21.2 146.96-23.1 149.24-25 151.11-25 152.99-25 153.64-24.08 154.29-23.15 154.29-22.55L154.29-22.55Q154.29-20.5 152.79-19.6L152.79-19.6Q151.79-20.4 149.81-20.4 147.84-20.4 145.89-19.18 143.94-17.95 143.94-16.5L143.94-16.5 143.94-1.45 148.44-1.15 148.44 0 134.49 0 134.49-1.15 137.79-1.4 137.79-22.75 133.74-22.95 133.74-24.1 143.94-24.65 143.64-18.5 143.84-18.5ZM156.24-33.4L171.59-33.4 171.59-32.25 167.24-31.75 167.24-1.6 179.69-1.75 182.29-7.45 183.89-7.45 183.29 0 156.24 0 156.24-1.2 160.59-1.65 160.59-31.75 156.24-32.25 156.24-33.4ZM222.38-16.75L222.38-16.75Q222.38 0 201.58 0L201.58 0 185.93 0 185.93-1.2 190.23-1.7 190.23-31.65 185.93-32.25 185.93-33.55Q188.23-33.4 191.28-33.4L191.28-33.4 196.08-33.4 202.28-33.6Q206.83-33.6 210.26-32.85 213.68-32.1 216.53-30.3L216.53-30.3Q222.38-26.6 222.38-16.75ZM214.83-16.7L214.83-16.7Q214.83-25.35 211.58-28.7L211.58-28.7Q210.53-29.85 209.63-30.43 208.73-31 207.38-31.3L207.38-31.3Q205.53-31.75 203.03-31.85L203.03-31.85 202.28-31.85Q198.63-31.85 196.93-31.6L196.93-31.6 196.93-1.75 201.58-1.6Q206.33-1.8 208.63-2.9L208.63-2.9Q214.83-5.85 214.83-16.7ZM251.78-32.2L251.78-33.4 261.88-33.4 261.88-32.2 258.38-31 258.38 0 254.98 0 232.73-27.4 232.73-2.45 236.93-1.2 236.93 0 226.93 0 226.93-1.2 230.58-2.45 230.58-31.75 226.23-32.2 226.23-33.4 235.63-33.4 255.63-8.5 255.63-31.05 251.78-32.2Z" fill="#000000" data-fill-palette-color="primary"></path></g></svg></g></svg></g><g transform="matrix(1,0,0,1,163.310208,64.68689818135604)"><svg viewBox="0 0 232.209792 16.945791864492904" height="16.945791864492904" width="232.209792"><g transform="matrix(1,0,0,1,0,0)"><svg width="232.209792" viewBox="1.6500000953674316 -38.45000076293945 708.3699951171875 51.70000076293945" height="16.945791864492904" data-palette-color="#97978d"><path d="M22.35-15.65L12.6-15.65 12.6-1.65 16.95-1.2 16.95 0 1.65 0 1.65-1.2 6-1.65 6-31.75 1.65-32.3 1.65-33.45 27.15-33.45 27.15-26.3 25.55-26.3 23.65-31.6 12.6-31.75 12.6-17.45 22.35-17.45 23.9-21.15 25.35-21.15 25.35-11.85 23.85-11.85 22.35-15.65ZM39.05-6.95L39.05-6.95Q39.05-4 39.77-2.65 40.5-1.3 42.7-1.3 44.9-1.3 47.05-4.05 49.2-6.8 49.2-8.8L49.2-8.8 49.2-22.8 45.25-23 45.25-24.15 55.6-24.8 55.6-1.6 59.65-1.4 59.65-0.25 49.4 0.35 49.65-4.65 49.15-4.65Q46.25 0.5 40.75 0.5L40.75 0.5Q32.75 0.5 32.75-7.2 32.75-14.9 33.3-22.8L33.3-22.8 29.6-23 29.6-24.15 39.55-24.7Q39.05-13.4 39.05-6.95ZM71-18.5Q71.84-21.2 74.12-23.1 76.39-25 78.27-25 80.14-25 80.8-24.08 81.44-23.15 81.44-22.55L81.44-22.55Q81.44-20.5 79.94-19.6L79.94-19.6Q78.94-20.4 76.97-20.4 75-20.4 73.05-19.18 71.09-17.95 71.09-16.5L71.09-16.5 71.09-1.45 75.59-1.15 75.59 0 61.64 0 61.64-1.15 64.94-1.4 64.94-22.75 60.89-22.95 60.89-24.1 71.09-24.65 70.8-18.5 71-18.5ZM100.59-1.15L102.99-1.45 103.29-17.3Q103.29-20.25 102.54-21.6 101.79-22.95 99.54-22.95 97.29-22.95 95.17-20.28 93.04-17.6 92.94-15.65L92.94-15.65 92.94-1.45 96.69-1.15 96.69 0 83.29 0 83.29-1.15 86.59-1.45 86.59-22.75 82.49-22.95 82.49-24 92.74-24.6 92.49-19.5 92.99-19.5Q94.34-22 96.64-23.38 98.94-24.75 101.59-24.75L101.59-24.75Q109.59-24.75 109.59-17.05L109.59-17.05Q109.59-11.5 109.24-1.45L109.24-1.45 112.69-1.15 112.69 0 100.59 0 100.59-1.15ZM128.14-1.15L128.14 0 115.24 0 115.24-1.15 118.49-1.45 118.49-22.75 114.19-23 114.19-24.05 124.89-24.7 124.89-1.45 128.14-1.15ZM125.24-33.13Q125.24-31.6 124.17-30.5 123.09-29.4 121.49-29.4 119.89-29.4 118.81-30.48 117.74-31.55 117.74-33.13 117.74-34.7 118.84-35.83 119.94-36.95 121.49-36.95 123.04-36.95 124.14-35.8 125.24-34.65 125.24-33.13ZM139.74 0.55L139.74 0.55Q134.94 0.55 133.64-2.8L133.64-2.8Q133.09-4.25 133.09-6.45L133.09-6.45Q133.09-14.75 133.34-23.1L133.34-23.1 129.94-23.1 129.94-24.4 133.39-24.4 133.44-31.75 139.84-31.75 139.69-24.4 146.69-24.4 146.69-23.1 139.69-23.1 139.59-19.05Q139.44-10.95 139.44-4.2L139.44-4.2Q139.44-2.25 139.86-1.55 140.29-0.85 141.41-0.85 142.54-0.85 143.91-2.43 145.29-4 145.89-6.2L145.89-6.2Q146.89-6.2 146.89-5.5L146.89-5.5Q146.89-5.35 146.84-5.15L146.84-5.15Q146.04-2.55 144.11-1 142.19 0.55 139.74 0.55ZM157.78-6.95L157.78-6.95Q157.78-4 158.51-2.65 159.24-1.3 161.44-1.3 163.64-1.3 165.78-4.05 167.94-6.8 167.94-8.8L167.94-8.8 167.94-22.8 163.99-23 163.99-24.15 174.34-24.8 174.34-1.6 178.39-1.4 178.39-0.25 168.14 0.35 168.39-4.65 167.89-4.65Q164.99 0.5 159.49 0.5L159.49 0.5Q151.49 0.5 151.49-7.2 151.49-14.9 152.03-22.8L152.03-22.8 148.34-23 148.34-24.15 158.28-24.7Q157.78-13.4 157.78-6.95ZM189.73-18.5Q190.58-21.2 192.86-23.1 195.13-25 197.01-25 198.88-25 199.53-24.08 200.18-23.15 200.18-22.55L200.18-22.55Q200.18-20.5 198.68-19.6L198.68-19.6Q197.68-20.4 195.71-20.4 193.73-20.4 191.78-19.18 189.83-17.95 189.83-16.5L189.83-16.5 189.83-1.45 194.33-1.15 194.33 0 180.38 0 180.38-1.15 183.68-1.4 183.68-22.75 179.63-22.95 179.63-24.1 189.83-24.65 189.53-18.5 189.73-18.5ZM218.78-17.45L218.78-17.45Q218.78-23.55 214.53-23.55L214.53-23.55Q210.08-23.55 209.13-15.75L209.13-15.75 218.68-15.75Q218.78-16.75 218.78-17.45ZM214.08 0.55L214.08 0.55Q208.73 0.55 205.41-2.95 202.08-6.45 202.08-12.2 202.08-17.95 205.56-21.45 209.03-24.95 214.38-24.95 219.73-24.95 222.38-22.68 225.03-20.4 225.03-16.35L225.03-16.35Q225.03-15.2 224.83-13.95L224.83-13.95 208.98-13.95 208.98-12.2Q208.98-6.6 210.38-3.73 211.78-0.85 214.61-0.85 217.43-0.85 219.76-2.02 222.08-3.2 223.38-5.35L223.38-5.35Q224.48-5 224.48-4.3L224.48-4.3Q224.48-3.05 222.13-1.4L222.13-1.4Q220.98-0.6 218.86-0.03 216.73 0.55 214.08 0.55ZM249.73 0.55L249.73 0.55Q244.93 0.55 243.63-2.8L243.63-2.8Q243.08-4.25 243.08-6.45L243.08-6.45Q243.08-14.75 243.33-23.1L243.33-23.1 239.93-23.1 239.93-24.4 243.38-24.4 243.43-31.75 249.83-31.75 249.68-24.4 256.68-24.4 256.68-23.1 249.68-23.1 249.58-19.05Q249.43-10.95 249.43-4.2L249.43-4.2Q249.43-2.25 249.85-1.55 250.28-0.85 251.4-0.85 252.53-0.85 253.9-2.43 255.28-4 255.88-6.2L255.88-6.2Q256.88-6.2 256.88-5.5L256.88-5.5Q256.88-5.35 256.83-5.15L256.83-5.15Q256.03-2.55 254.1-1 252.18 0.55 249.73 0.55ZM273.57-7.4L273.57-11.7Q267.77-11.7 266.27-8.65L266.27-8.65Q265.62-7.35 265.62-5.4L265.62-5.4Q265.62-2.05 267.92-1.5L267.92-1.5Q268.27-1.4 268.67-1.4L268.67-1.4Q270.27-1.4 271.87-3.08 273.47-4.75 273.57-7.4L273.57-7.4ZM265.57-16.6L265.57-16.6Q264.47-15.85 263.27-15.85 262.07-15.85 261.22-16.65 260.37-17.45 260.37-19.03 260.37-20.6 261.32-21.85 262.27-23.1 263.77-23.7L263.77-23.7Q266.72-24.95 269.37-24.95L269.37-24.95Q275.27-24.95 277.42-22.88 279.57-20.8 279.57-16.5L279.57-16.5 279.57-1.45 283.77-1.15 283.77-0.05 274.22 0.55 273.77-3.65Q271.42 0.6 265.67 0.6L265.67 0.6Q263.07 0.6 261.2-0.98 259.32-2.55 259.32-5.4L259.32-5.4Q259.37-9.2 263.12-11.13 266.87-13.05 273.57-13.05L273.57-13.05 273.57-17.35Q273.57-20.4 272.72-22.05 271.87-23.7 269.57-23.7 267.27-23.7 266.12-21.8L266.12-21.8Q265.37-20.55 265.37-19.15 265.37-17.75 265.57-16.6ZM298.12-1.15L298.12 0 285.22 0 285.22-1.15 288.47-1.45 288.47-22.75 284.17-23 284.17-24.05 294.87-24.7 294.87-1.45 298.12-1.15ZM295.22-33.13Q295.22-31.6 294.15-30.5 293.07-29.4 291.47-29.4 289.87-29.4 288.8-30.48 287.72-31.55 287.72-33.13 287.72-34.7 288.82-35.83 289.92-36.95 291.47-36.95 293.02-36.95 294.12-35.8 295.22-34.65 295.22-33.13ZM312.92-1.15L312.92 0 300.02 0 300.02-1.15 303.27-1.45 303.27-35.9 298.97-36.05 298.97-37.25 309.67-38.4 309.67-1.45 312.92-1.15ZM338.47-3.05Q334.97 0.55 328.92 0.55 322.87 0.55 319.37-3.05 315.87-6.65 315.87-12.2 315.87-17.75 319.37-21.35 322.87-24.95 328.92-24.95 334.97-24.95 338.47-21.35 341.97-17.75 341.97-12.2 341.97-6.65 338.47-3.05ZM322.81-12.2Q322.81-0.65 328.92-0.65 335.02-0.65 335.02-12.2L335.02-12.2Q335.02-17.85 333.67-20.78 332.31-23.7 328.92-23.7 325.52-23.7 324.17-20.78 322.81-17.85 322.81-12.2L322.81-12.2ZM354.81-18.5Q355.66-21.2 357.94-23.1 360.21-25 362.09-25 363.96-25 364.61-24.08 365.26-23.15 365.26-22.55L365.26-22.55Q365.26-20.5 363.76-19.6L363.76-19.6Q362.76-20.4 360.79-20.4 358.81-20.4 356.86-19.18 354.91-17.95 354.91-16.5L354.91-16.5 354.91-1.45 359.41-1.15 359.41 0 345.46 0 345.46-1.15 348.76-1.4 348.76-22.75 344.71-22.95 344.71-24.1 354.91-24.65 354.61-18.5 354.81-18.5ZM383.86-17.45L383.86-17.45Q383.86-23.55 379.61-23.55L379.61-23.55Q375.16-23.55 374.21-15.75L374.21-15.75 383.76-15.75Q383.86-16.75 383.86-17.45ZM379.16 0.55L379.16 0.55Q373.81 0.55 370.48-2.95 367.16-6.45 367.16-12.2 367.16-17.95 370.63-21.45 374.11-24.95 379.46-24.95 384.81-24.95 387.46-22.68 390.11-20.4 390.11-16.35L390.11-16.35Q390.11-15.2 389.91-13.95L389.91-13.95 374.06-13.95 374.06-12.2Q374.06-6.6 375.46-3.73 376.86-0.85 379.69-0.85 382.51-0.85 384.83-2.02 387.16-3.2 388.46-5.35L388.46-5.35Q389.56-5 389.56-4.3L389.56-4.3Q389.56-3.05 387.21-1.4L387.21-1.4Q386.06-0.6 383.94-0.03 381.81 0.55 379.16 0.55ZM404.56 0.75L404.56 0.75Q400.01 0.75 397.01-2.3 394.01-5.35 394.01-11.5 394.01-17.65 397.58-21.2 401.16-24.75 407.11-24.75L407.11-24.75Q410.21-24.75 412.96-23.3L412.96-23.3 412.96-36 408.66-36.3 408.66-37.55 419.36-38.4 419.36-1.15 423.61-0.95 423.66 0.2 413.21 0.8 413.31-3.7 413.01-3.7Q411.76-1.6 409.46-0.43 407.16 0.75 404.56 0.75ZM412.91-7.7L412.91-7.7 412.91-21.45Q410.91-23.3 407.81-23.3L407.81-23.3Q403.86-23.3 402.41-19.65L402.41-19.65Q401.21-16.45 401.21-11.5L401.21-11.5Q401.21-0.85 405.96-0.85L405.96-0.85Q408.76-0.85 410.83-3.25 412.91-5.65 412.91-7.7ZM446.7-24.7L446.7-0.2Q446.7 6.45 443.73 9.78 440.75 13.1 435.2 13.1L435.2 13.1Q431.75 13.1 429.63 11.98 427.5 10.85 427.5 8.4L427.5 8.4Q427.5 6.6 429.3 5.6L429.3 5.6Q430.25 5.1 431.13 5.1 432 5.1 432.8 5.5L432.8 5.5Q432.5 6.8 432.5 8.18 432.5 9.55 433.28 10.65 434.05 11.75 435.35 11.75 436.65 11.75 437.5 11.23 438.35 10.7 438.85 9.63 439.35 8.55 439.68 7.5 440 6.45 440.15 4.8L440.15 4.8Q440.3 2.45 440.3-0.65L440.3-0.65 440.3-22.75 436-23 436-24.05 446.7-24.7ZM447.1-33.13Q447.1-31.6 446.03-30.5 444.95-29.4 443.35-29.4 441.75-29.4 440.68-30.48 439.6-31.55 439.6-33.13 439.6-34.7 440.7-35.83 441.8-36.95 443.35-36.95 444.9-36.95 446-35.8 447.1-34.65 447.1-33.13ZM460.55-6.95L460.55-6.95Q460.55-4 461.28-2.65 462-1.3 464.2-1.3 466.4-1.3 468.55-4.05 470.7-6.8 470.7-8.8L470.7-8.8 470.7-22.8 466.75-23 466.75-24.15 477.1-24.8 477.1-1.6 481.15-1.4 481.15-0.25 470.9 0.35 471.15-4.65 470.65-4.65Q467.75 0.5 462.25 0.5L462.25 0.5Q454.25 0.5 454.25-7.2 454.25-14.9 454.8-22.8L454.8-22.8 451.1-23 451.1-24.15 461.05-24.7Q460.55-13.4 460.55-6.95ZM492.85-0.7L492.85-0.7Q494.6-0.7 495.75-1.83 496.9-2.95 496.9-5.5L496.9-5.5Q496.9-7.55 495.2-8.6L495.2-8.6Q493.9-9.4 491.87-10.18 489.85-10.95 488.77-11.5 487.7-12.05 486.4-12.95L486.4-12.95Q483.85-14.75 483.85-17.85 483.85-20.95 486.42-22.95 489-24.95 493.95-24.95L493.95-24.95Q497.05-24.95 499.2-23.63 501.35-22.3 501.35-20.3 501.35-18.3 499.65-17.4L499.65-17.4Q498.85-17 498.05-17L498.05-17 496.25-17.55Q496.55-19.1 496.55-20.38 496.55-21.65 495.75-22.68 494.95-23.7 493.35-23.7L493.35-23.7Q489.45-23.7 489.45-19L489.45-19Q489.45-16.85 491.1-15.8L491.1-15.8Q492.35-14.95 494.3-14.28 496.25-13.6 497.37-13.1 498.5-12.6 499.8-11.7L499.8-11.7Q502.4-10 502.4-6.68 502.4-3.35 499.65-1.4 496.9 0.55 492.4 0.55L492.4 0.55Q487.4 0.55 485-1.1L485-1.1Q483.6-2.1 483.6-3.55 483.6-5 484.57-5.9 485.55-6.8 487.3-6.85L487.3-6.85Q487.65-0.7 492.85-0.7ZM514.9 0.55L514.9 0.55Q510.1 0.55 508.8-2.8L508.8-2.8Q508.25-4.25 508.25-6.45L508.25-6.45Q508.25-14.75 508.5-23.1L508.5-23.1 505.1-23.1 505.1-24.4 508.55-24.4 508.6-31.75 515-31.75 514.85-24.4 521.85-24.4 521.85-23.1 514.85-23.1 514.75-19.05Q514.6-10.95 514.6-4.2L514.6-4.2Q514.6-2.25 515.02-1.55 515.45-0.85 516.57-0.85 517.7-0.85 519.07-2.43 520.45-4 521.05-6.2L521.05-6.2Q522.05-6.2 522.05-5.5L522.05-5.5Q522.05-5.35 522-5.15L522-5.15Q521.2-2.55 519.27-1 517.35 0.55 514.9 0.55ZM553.39-30.85L553.39-30.85Q553.69-32.15 553.69-33.52 553.69-34.9 552.91-36 552.14-37.1 550.96-37.1 549.79-37.1 549.09-36.8 548.39-36.5 547.89-35.8 547.39-35.1 547.04-34.45 546.69-33.8 546.46-32.63 546.24-31.45 546.11-30.68 545.99-29.9 545.94-28.5 545.89-27.1 545.89-26.4L545.89-26.4 545.89-24.4 553.39-24.4 553.39-23.1 545.89-23.1 545.89-1.45 551.49-1.15 551.49 0 536.19 0 536.19-1.15 539.49-1.45 539.49-23.1 536.04-23.1 536.04-24.4 539.49-24.4 539.49-25.15Q539.49-31.8 542.46-35.13 545.44-38.45 550.99-38.45L550.99-38.45Q554.44-38.45 556.56-37.33 558.69-36.2 558.69-33.75L558.69-33.75Q558.69-31.95 556.89-31L556.89-31Q555.94-30.45 555.06-30.45 554.19-30.45 553.39-30.85ZM577.59-3.05Q574.09 0.55 568.04 0.55 561.99 0.55 558.49-3.05 554.99-6.65 554.99-12.2 554.99-17.75 558.49-21.35 561.99-24.95 568.04-24.95 574.09-24.95 577.59-21.35 581.09-17.75 581.09-12.2 581.09-6.65 577.59-3.05ZM561.94-12.2Q561.94-0.65 568.04-0.65 574.14-0.65 574.14-12.2L574.14-12.2Q574.14-17.85 572.79-20.78 571.44-23.7 568.04-23.7 564.64-23.7 563.29-20.78 561.94-17.85 561.94-12.2L561.94-12.2ZM593.93-18.5Q594.78-21.2 597.06-23.1 599.33-25 601.21-25 603.08-25 603.73-24.08 604.38-23.15 604.38-22.55L604.38-22.55Q604.38-20.5 602.88-19.6L602.88-19.6Q601.88-20.4 599.91-20.4 597.93-20.4 595.98-19.18 594.03-17.95 594.03-16.5L594.03-16.5 594.03-1.45 598.53-1.15 598.53 0 584.58 0 584.58-1.15 587.88-1.4 587.88-22.75 583.83-22.95 583.83-24.1 594.03-24.65 593.73-18.5 593.93-18.5ZM630.53-23.15L630.53-24.4 640.08-24.4 640.08-23.15 636.58-22.15 628.48 0Q626.38 5.5 624.03 9L624.03 9Q621.18 13.25 617.13 13.25L617.13 13.25Q616.83 13.25 616.48 13.2L616.48 13.2Q614.83 13.2 613.83 12.23 612.83 11.25 612.83 9.68 612.83 8.1 614.23 6.5L614.23 6.5Q615.88 8.35 617.83 8.35L617.83 8.35Q620.58 8.35 622.48 6.33 624.38 4.3 626.03 0L626.03 0 616.43-22.85 613.93-23.35 613.93-24.4 625.48-24.4 625.48-23.35 622.53-22.9 628.93-6.6 634.48-22.15 630.53-23.15ZM663.68-3.05Q660.18 0.55 654.13 0.55 648.08 0.55 644.58-3.05 641.08-6.65 641.08-12.2 641.08-17.75 644.58-21.35 648.08-24.95 654.13-24.95 660.18-24.95 663.68-21.35 667.18-17.75 667.18-12.2 667.18-6.65 663.68-3.05ZM648.03-12.2Q648.03-0.65 654.13-0.65 660.23-0.65 660.23-12.2L660.23-12.2Q660.23-17.85 658.88-20.78 657.53-23.7 654.13-23.7 650.73-23.7 649.38-20.78 648.03-17.85 648.03-12.2L648.03-12.2ZM679.32-6.95L679.32-6.95Q679.32-4 680.05-2.65 680.77-1.3 682.97-1.3 685.17-1.3 687.32-4.05 689.47-6.8 689.47-8.8L689.47-8.8 689.47-22.8 685.52-23 685.52-24.15 695.87-24.8 695.87-1.6 699.92-1.4 699.92-0.25 689.67 0.35 689.92-4.65 689.42-4.65Q686.52 0.5 681.02 0.5L681.02 0.5Q673.02 0.5 673.02-7.2 673.02-14.9 673.57-22.8L673.57-22.8 669.87-23 669.87-24.15 679.82-24.7Q679.32-13.4 679.32-6.95ZM710.02-2.98Q710.02-1.55 709-0.48 707.97 0.6 706.47 0.6 704.97 0.6 703.95-0.45 702.92-1.5 702.92-2.98 702.92-4.45 703.97-5.5 705.02-6.55 706.47-6.55 707.92-6.55 708.97-5.48 710.02-4.4 710.02-2.98Z" opacity="1" transform="matrix(1,0,0,1,0,0)" fill="#000000" class="undefined-text-1" data-fill-palette-color="secondary" id="text-1"></path></svg></g></svg></g></svg></g></svg></g><g><svg viewBox="0 0 58.27636904014715 84.61228323252246" height="84.61228323252246" width="58.27636904014715"><g><svg xmlns="http://www.w3.org/2000/svg" xmlns:xlink="http://www.w3.org/1999/xlink" version="1.0" x="0" y="0" viewBox="17.10647964477539 5.176615238189697 61.843257904052734 89.79109954833984" enable-background="new 0 0 100 100" xml:space="preserve" height="84.61228323252246" width="58.27636904014715" class="icon-icon-0" data-fill-palette-color="accent" id="icon-0"><circle cx="47.5848846" cy="58.8970032" r="3.5" fill="#000000" data-fill-palette-color="accent"></circle><circle cx="47.5848846" cy="80.8466187" r="3.5" fill="#000000" data-fill-palette-color="accent"></circle><path d="M65.696 33.726h-7.646v11.664H17.106v49.578h61.844V45.39H65.696V33.726zM72.143 88.52H23.026v-15.348h49.117V88.52zM72.143 51.223v15.349H23.026V51.223H72.143z" fill="#000000" data-fill-palette-color="accent"></path><polygon points="67.9260941,5.1766152 55.8206635,5.1766152 45.2937164,28.5065022 77.5431213,28.5065022 " fill="#000000" data-fill-palette-color="accent"></polygon></svg></g></svg></g></svg></g></svg><rect width="395.52" height="71.7918960264905" fill="none" stroke="none" visibility="hidden"></rect></g></svg></g></svg>